<svg xmlns="http://www.w3.org/2000/svg" width="560" height="360" viewBox="0 0 560 360" shape-rendering="crispEdges">
  <title>Parker portfolio monitoring workstation</title>
  <g opacity=".16" fill="#0055ff"><rect x="68" y="314" width="424" height="8"/><rect x="92" y="322" width="376" height="6"/></g>
  <g>
    <rect x="116" y="154" width="108" height="116" fill="#c9d6e8"/><rect x="126" y="164" width="88" height="106" fill="#e7edf6"/>
    <rect x="106" y="176" width="14" height="78" fill="#95a8c3"/><rect x="220" y="176" width="14" height="78" fill="#95a8c3"/>
    <rect x="142" y="76" width="72" height="78" fill="#8f5d43"/><rect x="134" y="68" width="88" height="24" fill="#191919"/>
    <rect x="134" y="88" width="16" height="34" fill="#191919"/><rect x="151" y="104" width="10" height="9" fill="#111827"/>
    <rect x="195" y="104" width="10" height="9" fill="#111827"/><rect x="174" y="122" width="16" height="6" fill="#6b402f"/>
    <rect x="164" y="145" width="28" height="18" fill="#c89a80"/><path d="M126 168h104v96H126z" fill="#26334a"/>
    <path d="m156 168 22 34 22-34z" fill="#fff"/><path d="m176 186h10l8 42-13 17-13-17z" fill="#0055ff"/>
    <rect x="102" y="184" width="36" height="56" fill="#26334a"/><rect x="218" y="184" width="36" height="56" fill="#26334a"/>
    <rect x="94" y="226" width="42" height="18" fill="#8f5d43"/><rect x="220" y="226" width="42" height="18" fill="#8f5d43"/>
    <rect x="48" y="188" width="56" height="66" fill="#1d2a3f"/><rect x="56" y="198" width="40" height="30" fill="#eef4ff"/>
    <rect x="60" y="216" width="8" height="8" fill="#9eb1d0"/><rect x="72" y="208" width="8" height="16" fill="#6f8fff"/>
    <rect x="84" y="198" width="8" height="26" fill="#0055ff"/><rect x="56" y="236" width="32" height="6" fill="#ffb020"/>
    <rect x="302" y="70" width="194" height="140" fill="#192538"/><rect x="314" y="82" width="170" height="112" fill="#eef4ff"/>
    <path d="m330 164 26-30 30 14 34-48 30 18 24-28" fill="none" stroke="#0055ff" stroke-width="10"/>
    <rect x="330" y="174" width="132" height="6" fill="#c5d2e5"/><rect x="452" y="96" width="18" height="18" fill="#ffb020"/>
    <rect x="384" y="210" width="28" height="28" fill="#192538"/><rect x="354" y="234" width="88" height="10" fill="#192538"/>
    <rect x="252" y="232" width="78" height="10" fill="#adbbce"/><rect x="42" y="254" width="476" height="24" fill="#5d6c85"/>
    <rect x="42" y="254" width="476" height="7" fill="#8391a7"/><rect x="64" y="278" width="22" height="64" fill="#394962"/>
    <rect x="474" y="278" width="22" height="64" fill="#394962"/><rect x="76" y="290" width="398" height="10" fill="#475873"/>
  </g>
</svg>
